/vscmnt/brussel_pixiu_data/_data_brussel/112/vsc11236/PredSimResults/SUBJ06mtu3D/weighted-expIG/worker_04.mot
version=1
nRows=5
nColumns=50
inDegrees=yes
endheader
                time	         pelvis_tilt	         pelvis_list	     pelvis_rotation	           pelvis_tx	           pelvis_ty	           pelvis_tz	       hip_flexion_r	     hip_adduction_r	      hip_rotation_r	        knee_angle_r	       ankle_angle_r	         mtp_angle_r	       hip_flexion_l	     hip_adduction_l	      hip_rotation_l	        knee_angle_l	       ankle_angle_l	         mtp_angle_l	    lumbar_extension	      lumbar_bending	     lumbar_rotation	 ercspn_r/activation	 intobl_r/activation	 extobl_r/activation	    abd_r/activation	    add_r/activation	hamstrings_r/activation	bifemsh_r/activation	glut_max_r/activation	iliopsoas_r/activation	rect_fem_r/activation	  vasti_r/activation	gastroc_r/activation	 soleus_r/activation	tib_ant_r/activation	 ercspn_l/activation	 intobl_l/activation	 extobl_l/activation	    abd_l/activation	    add_l/activation	hamstrings_l/activation	bifemsh_l/activation	glut_max_l/activation	iliopsoas_l/activation	rect_fem_l/activation	  vasti_l/activation	gastroc_l/activation	 soleus_l/activation	tib_ant_l/activation	
          3.00000003	         -9.00935174	         -4.25286659	         14.43252754	          3.33000003	          0.96425988	         -0.00467462	         16.27691188	          2.69982288	        -10.18537445	        -25.76009776	          3.58161880	         24.88622457	         21.07201990	          2.88063915	         13.20338957	        -20.95564821	         12.53204690	          1.44945684	         -3.65373793	         -0.22906448	          9.86404587	          0.13585920	          0.17975316	          0.00999999	          0.03060090	          0.00999999	          0.02004796	          0.20335892	          0.02370368	          0.48571760	          0.00999999	          0.01649974	          0.29113744	          0.12272019	          0.01099649	          0.21500589	          0.02085456	          0.06595933	          0.07756854	          0.16581861	          0.28126231	          0.00999999	          0.01576111	          0.02234483	          0.05549987	          0.06015839	          0.00999999	          0.00999999	          0.41281890	
          3.02000003	         -8.50988552	         -4.34621467	         13.92269018	          3.35063889	          0.96156061	         -0.00313343	         19.01348388	          2.75380795	         -9.35681813	        -33.92432648	          3.02467973	         27.44582300	         20.14489377	          2.73782412	         13.44854975	        -20.78782890	         11.66815329	          1.22380404	         -4.14373839	         -0.33135897	          9.22038070	          0.17412511	          0.22422752	          0.00999999	          0.02295068	          0.00999999	          0.01503597	          0.17513846	          0.01777776	          0.36428822	          0.13756542	          0.01237481	          0.21835308	          0.09204014	          0.11407441	          0.16125442	          0.01564092	          0.04946950	          0.09721845	          0.12436395	          0.21094673	          0.00999999	          0.01182084	          0.01675862	          0.04213988	          0.24265004	          0.09638155	          0.13565222	          0.30961417	
          3.04000003	         -8.02750093	         -4.29095913	         13.28513673	          3.37198452	          0.95730976	         -0.00135703	         22.27954299	          2.76542779	         -8.27788594	        -42.94004789	          2.53354829	         27.16276522	         18.62752112	          2.20617514	         13.07535946	        -21.61690612	         13.11704394	          2.54347562	         -4.51108370	         -0.56297100	          8.39620758	          0.20561884	          0.16817064	          0.25454144	          0.01721301	          0.00999999	          0.01127697	          0.24138531	          0.01333332	          0.29583720	          0.38195373	          0.00999999	          0.16376481	          0.06903011	          0.17418750	          0.12094081	          0.03719258	          0.03710212	          0.18650464	          0.09327297	          0.15821005	          0.01000000	          0.01865249	          0.01256897	          0.03160491	          0.27729866	          0.13939515	          0.21123873	          0.23221063	
          3.06000003	         -7.63164905	         -4.00193466	         12.60184480	          3.39357647	          0.95302360	          0.00023405	         25.63055635	          2.64159727	         -7.27135560	        -51.53208788	          1.91493605	         23.75156034	         16.45015359	          1.75262287	         12.34872089	        -21.33330225	         14.99870396	          4.55572542	         -4.80922401	         -0.96288963	          7.45875906	          0.18380493	          0.13509814	          0.35764494	          0.01290975	          0.00999999	          0.00999999	          0.25686788	          0.00999999	          0.26658152	          0.66143809	          0.00999999	          0.12282361	          0.05177258	          0.31629640	          0.09070561	          0.02789443	          0.02782659	          0.25478533	          0.06995472	          0.11865754	          0.00999999	          0.08055868	          0.00999999	          0.02370368	          0.21635772	          0.19176694	          0.28297110	          0.17415797	
          3.08000003	         -7.34471661	         -3.59784154	         11.90335751	          3.41472727	          0.94990329	          0.00162023	         28.68585517	          2.45342064	         -6.40648835	        -58.32778807	          2.55864218	         18.54442000	         14.40959677	          1.50507927	         11.47526588	        -21.03426215	         16.37557915	          6.62325573	         -5.12741220	         -1.37693623	          6.51061243	          0.13785370	          0.19937335	          0.33680902	          0.00999999	          0.00999999	          0.00999999	          0.31491960	          0.00999999	          0.22472323	          0.82842024	          0.00999999	          0.09211771	          0.03882943	          0.33646506	          0.06802921	          0.02092083	          0.02086994	          0.24297574	          0.05246604	          0.08899315	          0.00999999	          0.09235991	          0.00999999	          0.01777776	          0.21299476	          0.23269701	          0.33283447	          0.13061848	
